<?xml version="1.0" standalone="no"?>
<!DOCTYPE svg PUBLIC "-//W3C//DTD SVG 20010904//EN"
 "http://www.w3.org/TR/2001/REC-SVG-20010904/DTD/svg10.dtd">
<svg version="1.0" xmlns="http://www.w3.org/2000/svg"
 width="551.000000pt" height="551.000000pt" viewBox="0 0 551.000000 551.000000"
 preserveAspectRatio="xMidYMid meet">
<metadata>
Created by potrace 1.14, written by Peter Selinger 2001-2017
</metadata>
<g transform="translate(0.000000,551.000000) scale(0.100000,-0.100000)"
fill="#000000" stroke="none">
<path d="M392 4653 c-38 -7 -74 -21 -85 -31 -28 -28 -34 -97 -12 -138 30 -55
51 -59 348 -58 l268 1 275 -556 c152 -306 286 -576 299 -601 13 -25 110 -218
217 -429 206 -410 235 -454 316 -483 29 -10 227 -13 957 -12 917 0 1014 2
1052 23 26 13 85 134 116 236 40 131 74 233 171 520 59 171 129 379 157 464
27 85 55 163 61 174 6 11 10 40 10 64 -2 55 -32 83 -104 98 -31 7 -573 10
-1538 10 -1484 0 -1489 0 -1499 20 -129 273 -318 641 -341 664 -20 20 -45 32
-73 36 -81 12 -525 11 -595 -2z m2595 -1508 l0 -435 -396 -2 c-218 -2 -428 -1
-466 2 l-70 5 0 433 -1 432 467 0 467 0 -1 -435z m1024 428 c4 -31 3 -847 -1
-854 -5 -7 -308 -11 -832 -9 l-98 0 0 435 0 435 465 0 c256 0 465 -3 466 -7z"/>
<path d="M2441 3460 c-4 -3 -27 -59 -50 -125 -24 -66 -51 -139 -62 -161 -10
-23 -21 -55 -25 -70 -4 -16 -10 -33 -14 -39 -4 -5 -16 -37 -28 -70 -11 -33
-32 -88 -45 -122 -14 -35 -25 -64 -24 -64 12 -8 200 -2 205 6 4 5 14 30 22 55
l15 45 114 0 114 0 14 -50 c8 -28 17 -52 19 -55 5 -4 214 -8 214 -3 0 1 -5 15
-11 30 -6 15 -15 38 -20 51 -5 12 -13 32 -19 45 -14 33 -116 307 -158 425 -30
83 -40 102 -57 103 -81 4 -198 3 -204 -1z m143 -287 c14 -50 26 -98 26 -105 0
-10 -17 -13 -65 -13 -36 0 -65 2 -65 4 0 2 14 50 30 108 17 57 30 106 30 110
0 26 22 -26 44 -104z"/>
<path d="M3317 3472 c-15 -3 -17 -31 -18 -295 -1 -295 0 -349 7 -356 6 -6 385
-3 424 4 62 10 96 25 122 53 67 70 69 176 6 241 -17 17 -41 34 -54 37 -30 8
-31 20 -1 28 33 8 63 63 66 121 2 40 -3 58 -26 93 -43 66 -74 73 -310 75 -110
1 -207 1 -216 -1z m331 -148 c15 -10 22 -25 22 -49 0 -42 -22 -56 -88 -57 -81
-1 -78 -4 -78 62 l0 60 61 0 c39 0 69 -6 83 -16z m38 -259 c21 -28 17 -64 -8
-86 -18 -14 -40 -18 -98 -19 l-76 0 2 60 c0 33 2 63 3 66 0 3 37 4 82 2 66 -3
83 -7 95 -23z"/>
<path d="M3867 2273 c-2 -1 -105 -5 -492 -18 -313 -11 -553 -22 -820 -40 -116
-8 -272 -25 -330 -36 -27 -5 -66 -12 -85 -15 -122 -20 -233 -103 -270 -202
-36 -94 -27 -203 23 -292 40 -72 144 -144 225 -155 20 -3 470 -6 1000 -6 1058
0 1019 -2 1040 59 10 30 6 76 -8 103 -21 39 -49 40 -1046 42 -779 2 -974 5
-992 15 -34 20 -62 72 -62 116 0 56 45 96 145 125 97 29 175 39 366 46 268 9
432 15 514 20 44 2 141 7 215 10 874 36 824 32 854 77 38 58 18 129 -40 148
-27 9 -229 12 -237 3z"/>
<path d="M2247 1429 c-57 -14 -90 -33 -131 -79 -48 -53 -67 -98 -70 -168 -9
-161 100 -283 254 -284 69 -1 97 5 146 30 121 63 174 202 126 330 -52 135
-185 206 -325 171z"/>
<path d="M3733 1419 c-58 -22 -102 -63 -141 -129 -23 -39 -27 -56 -26 -125 0
-96 21 -143 88 -202 107 -94 278 -89 374 10 18 19 44 60 57 93 90 222 -126
440 -352 353z"/>
</g>
</svg>
